<svg width="16.666626" height="16.670776" viewBox="0 0 16.6666 16.6708" fill="none" xmlns="http://www.w3.org/2000/svg" xmlns:xlink="http://www.w3.org/1999/xlink">
	<desc>
			Created with Pixso.
	</desc>
	<defs/>
	<path id="Shape" d="M3.47498 1.6687C3.82788 0.668701 4.77295 0 5.83337 0C6.89368 0 7.83887 0.668701 8.19165 1.6687L16.6666 1.6687L16.6666 3.33533L8.19165 3.33533C7.83887 4.33533 6.89368 5.00403 5.83337 5.00403C4.77295 5.00403 3.82788 4.33533 3.47498 3.33533L0 3.33533L0 1.6687L3.47498 1.6687ZM6.66663 2.50208C6.66663 2.96228 6.29358 3.33533 5.83337 3.33533C5.37305 3.33533 5 2.96228 5 2.50208C5 2.04175 5.37305 1.6687 5.83337 1.6687C6.29358 1.6687 6.66663 2.04175 6.66663 2.50208ZM10.8334 5.83337C9.77295 5.83337 8.82788 6.50208 8.47498 7.50208L0 7.50208L0 9.1687L8.47498 9.1687C8.82788 10.1687 9.77295 10.8374 10.8334 10.8374C11.8937 10.8374 12.8389 10.1687 13.1917 9.1687L16.6666 9.1687L16.6666 7.50208L13.1917 7.50208C12.8389 6.50208 11.8937 5.83337 10.8334 5.83337ZM10.8334 9.1687C11.2936 9.1687 11.6666 8.79565 11.6666 8.33533C11.6666 7.87512 11.2936 7.50208 10.8334 7.50208C10.373 7.50208 10 7.87512 10 8.33533C10 8.79565 10.373 9.1687 10.8334 9.1687ZM3.47498 13.3353C3.82788 12.3354 4.77295 11.6666 5.83337 11.6666C6.89368 11.6666 7.83887 12.3354 8.19165 13.3353L16.6666 13.3353L16.6666 15.0021L8.19165 15.0021C7.83887 16.002 6.89368 16.6708 5.83337 16.6708C4.77295 16.6708 3.82788 16.002 3.47498 15.0021L0 15.0021L0 13.3353L3.47498 13.3353ZM6.66663 14.1687C6.66663 14.6289 6.29358 15.0021 5.83337 15.0021C5.37305 15.0021 5 14.6289 5 14.1687C5 13.7085 5.37305 13.3353 5.83337 13.3353C6.29358 13.3353 6.66663 13.7085 6.66663 14.1687Z" clip-rule="evenodd" fill="#000000" fill-opacity="1.000000" fill-rule="evenodd"/>
</svg>
